<svg version="1.1" id="Layer_1" xmlns="http://www.w3.org/2000/svg" xmlns:xlink="http://www.w3.org/1999/xlink" x="0px" y="0px"
	 width="100%" viewBox="0 0 1355 304" enable-background="new 0 0 1355 304" xml:space="preserve">
<path fill="#FCFDFD" opacity="1.000000" stroke="none" 
	d="
M26.000000,305.000000 
	C17.667799,305.000000 9.335599,305.000000 1.002549,305.000000 
	C1.001699,203.681580 1.001699,102.363152 1.001699,1.022365 
	C452.590332,1.022365 904.180664,1.022365 1355.885498,1.022365 
	C1355.885498,102.243118 1355.885498,203.486420 1355.885498,305.000000 
	C991.639832,305.000000 627.279602,305.000000 262.429993,304.728577 
	C261.921326,304.276154 261.902100,304.095154 262.119934,303.636047 
	C271.555359,301.255005 278.238495,293.625610 278.522858,285.201691 
	C279.193481,283.144836 279.720673,281.231873 279.723450,279.318115 
	C279.759827,254.196167 279.752991,229.074036 279.690399,203.952103 
	C279.658081,190.985794 279.493774,178.019806 279.522827,164.635330 
	C278.980042,158.945511 278.673950,153.594833 277.566376,148.415543 
	C270.830750,116.918274 254.979614,90.818581 230.233368,70.255623 
	C194.765228,40.783283 154.092972,31.989162 109.697678,42.473392 
	C74.913155,50.687981 47.835396,70.927589 28.490078,101.027298 
	C21.878759,111.313965 15.986394,122.113617 13.442971,134.674194 
	C11.434057,145.544922 8.404336,156.131424 8.200089,166.772156 
	C7.491254,203.700760 7.756664,240.648178 7.666307,277.588470 
	C7.632884,291.252777 13.093646,299.209991 25.901974,304.371338 
	C25.963720,304.575317 26.000000,305.000000 26.000000,305.000000 
M657.779541,97.920235 
	C656.507996,98.219246 655.236450,98.518250 653.964905,98.817261 
	C654.183594,98.546577 654.402344,98.275902 653.123169,98.472031 
	C652.090820,98.637985 651.058411,98.803947 649.659302,98.876968 
	C649.417114,99.234207 649.174927,99.591446 648.529175,100.327347 
	C648.567688,100.861641 648.606201,101.395935 648.367798,102.836823 
	C648.367798,159.693146 648.367798,216.549454 648.367798,273.645416 
	C656.929871,273.645416 665.018372,273.645416 673.669006,273.787506 
	C674.244202,273.737244 674.819458,273.686981 675.906982,273.881256 
	C676.271729,273.813232 676.636475,273.745239 677.576355,273.829529 
	C678.069214,273.591736 678.562012,273.353912 679.690308,272.748444 
	C679.690308,260.942261 679.690308,249.136047 679.690308,237.329865 
	C680.131897,237.337143 680.573425,237.344421 681.015015,237.351700 
	C681.015015,237.779938 681.015015,238.208176 680.487122,236.093552 
	C680.648682,233.514725 680.810303,230.935898 681.177490,229.333694 
	C680.834961,229.375397 680.219238,229.513458 680.194397,229.443130 
	C680.035461,228.992416 679.943420,228.496017 679.943237,228.014587 
	C679.934814,205.803970 679.935425,183.593353 679.959290,161.382751 
	C679.959778,160.928345 680.246765,160.474213 680.702209,159.124680 
	C680.878845,160.567139 680.946716,161.121338 680.481750,159.674316 
	C680.650085,156.249664 680.818420,152.824997 681.165649,150.376114 
	C680.899231,150.542862 680.632812,150.709610 680.366394,150.876343 
	C680.285339,150.732773 680.133362,150.589264 680.133240,150.445618 
	C680.122437,136.651199 680.123108,122.856766 680.123108,109.062332 
	C680.335693,109.047356 680.548279,109.032387 680.760803,109.017418 
	C680.848389,109.551086 680.935913,110.084755 680.494934,108.953049 
	C680.212402,107.234749 679.929810,105.516457 679.823730,103.272636 
	C679.568604,102.156952 679.313477,101.041267 678.997986,99.991302 
	C678.997986,99.991302 679.073364,99.944000 678.860901,99.221848 
	C675.143982,99.098938 671.427002,98.976028 666.857910,98.720482 
	C665.821106,98.896889 664.784302,99.073303 663.017700,99.259399 
	C662.044067,99.269371 661.070374,99.279335 658.554993,98.655312 
	C658.031555,98.468872 657.508057,98.282433 657.779541,97.920235 
M738.800781,273.850800 
	C743.193787,274.342773 741.825623,271.314056 741.928284,268.135681 
	C741.939941,214.065201 741.952759,159.994720 741.953552,105.924232 
	C741.953552,104.933388 741.809753,103.942535 741.907837,102.578476 
	C741.978638,102.292839 741.929504,102.029617 741.939270,101.306213 
	C741.875977,101.146744 741.812622,100.987282 741.797852,100.240318 
	C741.296570,99.849579 740.790771,99.112923 740.294739,99.119385 
	C731.167908,99.238235 722.042297,99.445969 712.348938,99.418526 
	C712.188416,99.541946 712.027954,99.665375 711.297424,99.885567 
	C711.271790,100.233353 711.246094,100.581131 711.098572,101.867912 
	C711.117798,116.003899 711.150696,130.139893 711.153564,144.275879 
	C711.161926,186.019592 711.141418,227.763336 711.234619,269.506836 
	C711.237732,270.887604 712.347168,272.265900 713.863953,273.853516 
	C719.236572,273.791748 724.609192,273.730011 730.856201,273.871765 
	C733.241943,273.799835 735.627625,273.727936 738.800781,273.850800 
M619.818848,219.145981 
	C620.168457,217.435455 620.518127,215.724915 621.078613,213.142593 
	C621.014343,210.757675 620.950012,208.372772 621.061096,205.153885 
	C620.629028,202.799393 620.196960,200.444901 619.845825,197.414200 
	C619.640320,196.304199 619.434814,195.194214 619.448975,193.562531 
	C619.013123,192.573013 618.577271,191.583496 618.142212,189.819489 
	C614.889343,176.442459 607.653809,165.542984 596.642944,157.498917 
	C581.322998,146.306808 564.445129,144.720444 546.220276,149.535248 
	C520.730774,156.269318 500.829132,180.860428 500.323700,208.130325 
	C500.208160,214.363647 501.063507,220.652527 501.902588,226.857605 
	C503.355957,237.604736 508.171082,246.862320 515.290039,255.456482 
	C515.476929,255.748825 515.743896,255.899094 516.277283,256.544495 
	C540.907715,283.941315 594.873108,285.689667 617.354431,248.315811 
	C609.917725,244.447983 602.514832,240.597702 595.033142,236.706451 
	C583.385742,250.121124 569.128296,254.315582 552.452026,249.083008 
	C538.349548,244.658005 532.393372,233.825958 531.349182,219.543716 
	C531.892822,219.341934 532.436401,219.140152 533.896912,219.162277 
	C561.542053,219.129181 589.187134,219.096100 617.210266,219.335846 
	C617.654724,219.262665 618.099182,219.189468 618.773010,219.289169 
	C618.773010,219.289169 619.006531,219.121918 619.818848,219.145981 
M447.953796,273.811310 
	C456.284058,273.775726 464.614319,273.740173 473.790558,273.950348 
	C474.576355,272.670959 476.046600,271.393097 476.049438,270.111969 
	C476.168579,216.675247 476.129761,163.238205 476.222778,109.801399 
	C476.228729,106.385521 475.401703,105.075241 471.746643,105.210625 
	C464.099426,105.493904 456.426422,105.529594 448.781342,105.227676 
	C445.105316,105.082504 444.282074,106.285507 444.308746,109.757942 
	C444.464813,130.066025 444.401733,150.375839 444.388916,170.685043 
	C444.388245,171.761246 444.171936,172.837311 444.051117,173.958771 
	C420.296021,173.958771 396.910187,173.958771 373.076050,173.958771 
	C373.076050,172.575104 373.076477,171.452087 373.076019,170.329056 
	C373.067566,150.352585 373.080933,130.376053 373.005920,110.399834 
	C373.000336,108.907463 372.361633,107.417473 371.322998,105.485771 
	C362.672424,105.470619 354.016815,105.620155 345.373749,105.358093 
	C341.982849,105.255280 341.152161,106.302467 341.159851,109.594238 
	C341.256348,150.884415 341.210907,192.174942 341.203369,233.465363 
	C341.200928,246.746521 341.202972,260.027679 341.202972,273.651123 
	C351.719482,273.651123 361.821167,273.651123 372.732971,273.413727 
	C372.858154,272.773438 373.093201,272.133057 373.092712,271.492859 
	C373.076385,250.537903 373.037201,229.582962 373.002319,208.628006 
	C372.999084,206.693527 373.001892,204.759064 373.001892,202.872070 
	C397.173981,202.872070 420.687317,202.872070 444.060699,202.872070 
	C444.314545,203.571320 444.521729,203.875092 444.521118,204.178436 
	C444.476868,226.126572 444.424255,248.074692 444.342590,270.022705 
	C444.335327,271.975708 443.496124,274.384125 447.953796,273.811310 
M918.501526,105.531883 
	C918.417542,114.632156 918.273132,123.732338 918.259644,132.832718 
	C918.192566,178.234863 918.195007,223.637192 918.045227,269.039001 
	C918.033875,272.484070 918.823486,273.665405 922.485718,273.609894 
	C938.448792,273.367767 954.417175,273.492371 970.382568,273.360382 
	C973.301575,273.336273 976.215759,272.738007 980.042908,272.540619 
	C987.885498,271.385956 995.883484,270.856506 1003.540039,268.953430 
	C1022.637024,264.206787 1037.886963,253.455643 1047.960815,236.515381 
	C1061.068481,214.473404 1064.008423,190.731277 1057.833374,165.787628 
	C1049.200195,130.914917 1017.517822,109.291855 985.735779,106.452530 
	C965.738831,104.666054 945.530579,105.229652 925.415894,104.797714 
	C923.304077,104.752365 921.183716,105.104759 918.501526,105.531883 
M1252.061035,264.430237 
	C1264.506226,273.352173 1278.466187,277.401367 1293.670288,276.684509 
	C1302.412354,276.272339 1310.607178,273.787842 1318.833252,270.312775 
	C1333.935669,263.932739 1343.067261,252.824585 1349.264404,237.985870 
	C1340.551514,234.648483 1332.325073,231.497437 1324.014282,228.314072 
	C1323.124634,229.805618 1322.384399,230.885559 1321.803345,232.045319 
	C1313.949463,247.720184 1293.996094,253.587418 1277.673340,245.751541 
	C1261.619751,238.044907 1252.991943,220.298996 1258.821655,199.459930 
	C1262.291870,187.055450 1270.808594,179.190475 1282.935913,176.018311 
	C1296.230103,172.540985 1308.213867,175.843292 1317.896606,185.989700 
	C1320.074585,188.271896 1321.682129,192.346878 1324.096680,192.820221 
	C1326.763916,193.343140 1330.053833,190.666000 1333.079468,189.399246 
	C1333.993042,189.016739 1334.945557,188.725983 1335.853149,188.330780 
	C1340.286255,186.400055 1344.710205,184.448288 1349.133057,182.505875 
	C1343.099731,169.506882 1336.378174,161.868179 1326.062256,156.040405 
	C1309.408569,146.632401 1292.037720,144.772812 1273.421997,149.559387 
	C1234.235962,159.635071 1218.838745,197.717056 1229.153564,232.550629 
	C1233.043091,245.685669 1240.917847,255.749710 1252.061035,264.430237 
M792.563049,265.869629 
	C813.004333,278.515320 834.623047,280.471802 856.572632,271.135986 
	C890.762146,256.594208 900.713318,222.198074 891.083740,191.146469 
	C879.161560,152.702423 840.246521,139.220947 807.169067,150.468292 
	C784.018494,158.340179 769.973938,175.018951 765.555237,199.725021 
	C761.109802,224.580490 770.299561,251.120010 792.563049,265.869629 
M1162.746582,273.981964 
	C1163.569580,273.864471 1164.440308,273.881866 1165.208740,273.610046 
	C1199.319092,261.544830 1215.088867,229.101547 1206.938232,195.702072 
	C1197.014282,155.035324 1152.885010,136.751709 1117.126099,152.598007 
	C1082.675415,167.864502 1070.341187,208.262161 1085.906494,240.607025 
	C1097.483765,264.664764 1117.707275,275.741882 1143.786377,276.562897 
	C1149.809814,276.752533 1155.893677,275.018219 1162.746582,273.981964 
M272.994354,75.340866 
	C272.992554,65.018700 272.938690,54.696136 273.015869,44.374557 
	C273.044647,40.521099 271.708801,37.460690 267.645813,37.368580 
	C255.831390,37.100746 244.002731,37.079350 232.192368,37.412277 
	C230.361694,37.463882 227.644470,39.573719 227.081345,41.300514 
	C226.557907,42.905556 227.861023,45.758587 229.254379,47.193916 
	C231.770355,49.785675 235.235870,51.445152 237.806946,53.995838 
	C246.989166,63.105286 255.903091,72.485100 265.079742,81.600327 
	C266.424530,82.936119 268.642761,83.392609 270.456848,84.255959 
	C271.297821,82.431679 272.227386,80.640846 272.935211,78.766304 
	C273.210724,78.036629 272.986450,77.118248 272.994354,75.340866 
z"/>
<path fill="#FCFCFE" opacity="1.000000" stroke="none" 
	d="
M158.000000,305.000000 
	C149.312439,305.000000 140.624863,305.000000 131.575470,304.802734 
	C131.213623,304.605499 131.117371,304.167297 131.311691,303.781952 
	C131.522430,294.942596 131.587723,286.488312 131.545227,278.034607 
	C131.452774,259.647552 131.305328,241.260803 131.274033,222.474670 
	C128.376968,208.242493 121.784920,196.737289 108.189018,191.324646 
	C101.944916,188.838837 94.731773,188.787140 87.668793,187.398926 
	C79.677872,183.750748 76.684914,178.009369 78.391624,169.924820 
	C79.727425,163.597229 85.225075,159.777969 92.901764,159.575470 
	C96.033287,159.492859 99.285004,159.410950 102.256165,158.549591 
	C120.588722,153.234848 131.141922,139.096741 131.752960,120.013016 
	C131.853424,116.875298 132.867081,113.400215 134.533386,110.759079 
	C137.566925,105.950836 143.459961,104.500847 149.164078,106.258820 
	C154.826080,108.003807 158.047302,112.613014 158.567886,119.577888 
	C158.876450,123.706207 158.777267,127.951454 159.746048,131.928635 
	C163.437546,147.083237 181.649597,161.488358 196.875427,159.666092 
	C201.965805,159.056870 206.405090,160.965561 209.492310,165.257233 
	C212.654358,169.652939 213.172943,174.566345 211.046005,179.425568 
	C208.444519,185.368958 203.245117,187.639938 197.057297,188.229706 
	C193.832947,188.537033 190.638947,189.162689 187.076797,189.634125 
	C185.820206,189.865494 184.918060,190.107300 183.723907,190.444824 
	C182.788223,190.967529 182.144562,191.394547 181.148010,191.764313 
	C177.409897,193.941223 173.399536,195.620605 170.798935,198.551056 
	C167.605072,202.150009 165.588699,206.793930 162.823914,211.252029 
	C161.433044,213.691757 160.281586,215.865585 159.059967,218.501068 
	C158.936951,246.963608 158.884079,274.964508 158.715027,303.220337 
	C158.661667,303.651123 158.724472,303.826996 158.574066,304.082520 
	C158.240891,304.441620 158.120605,304.720886 158.000000,305.000000 
z"/>
<path fill="#838AFE" opacity="1.000000" stroke="none" 
	d="
M131.117371,304.167297 
	C131.117371,304.167297 131.213623,304.605499 131.106812,304.802734 
	C96.312439,305.000000 61.624878,305.000000 26.468658,305.000000 
	C26.000000,305.000000 25.963720,304.575317 26.274273,304.280609 
	C27.092495,303.930786 27.600166,303.875702 28.565758,303.874084 
	C32.509632,303.947540 35.995567,303.978699 39.481548,303.985901 
	C70.026817,304.048798 100.572098,304.107391 131.117371,304.167297 
z"/>
<path fill="#8C94FE" opacity="1.000000" stroke="none" 
	d="
M158.468658,305.000000 
	C158.120605,304.720886 158.240891,304.441620 159.057266,304.093018 
	C192.813232,303.967316 225.872757,303.910797 259.298584,303.904541 
	C260.404205,303.941254 261.143555,303.927734 261.882874,303.914185 
	C261.902100,304.095154 261.921326,304.276154 261.970276,304.728577 
	C227.645767,305.000000 193.291550,305.000000 158.468658,305.000000 
z"/>
<path fill="#161864" opacity="1.000000" stroke="none" 
	d="
M1251.748047,264.250824 
	C1240.917847,255.749710 1233.043091,245.685669 1229.153564,232.550629 
	C1218.838745,197.717056 1234.235962,159.635071 1273.421997,149.559387 
	C1292.037720,144.772812 1309.408569,146.632401 1326.062256,156.040405 
	C1336.378174,161.868179 1343.099731,169.506882 1349.133057,182.505875 
	C1344.710205,184.448288 1340.286255,186.400055 1335.853149,188.330780 
	C1334.945557,188.725983 1333.993042,189.016739 1333.079468,189.399246 
	C1330.053833,190.666000 1326.763916,193.343140 1324.096680,192.820221 
	C1321.682129,192.346878 1320.074585,188.271896 1317.896606,185.989700 
	C1308.213867,175.843292 1296.230103,172.540985 1282.935913,176.018311 
	C1270.808594,179.190475 1262.291870,187.055450 1258.821655,199.459930 
	C1252.991943,220.298996 1261.619751,238.044907 1277.673340,245.751541 
	C1293.996094,253.587418 1313.949463,247.720184 1321.803345,232.045319 
	C1322.384399,230.885559 1323.124634,229.805618 1324.014282,228.314072 
	C1332.325073,231.497437 1340.551514,234.648483 1349.264404,237.985870 
	C1343.067261,252.824585 1333.935669,263.932739 1318.833252,270.312775 
	C1310.607178,273.787842 1302.412354,276.272339 1293.670288,276.684509 
	C1278.466187,277.401367 1264.506226,273.352173 1251.748047,264.250824 
M1335.045410,235.505280 
	C1326.535278,231.619095 1326.601685,231.674286 1321.024780,238.379150 
	C1311.892212,249.358902 1299.749146,254.527695 1286.114624,251.495560 
	C1272.008301,248.358490 1261.736694,239.778641 1256.533081,224.973404 
	C1251.392822,210.348282 1255.676025,190.884171 1268.500000,180.804932 
	C1286.300049,166.814453 1309.000000,169.550735 1322.573608,187.910950 
	C1323.328491,188.931915 1325.748291,189.694611 1326.916870,189.269180 
	C1332.028564,187.408249 1336.909546,184.922852 1341.985474,182.950378 
	C1344.918457,181.810669 1345.499268,180.342545 1343.878662,177.707748 
	C1336.312988,165.407516 1326.114014,156.554840 1311.881470,152.781754 
	C1300.186279,149.681366 1288.399048,147.944031 1276.666016,151.963409 
	C1268.609253,154.723404 1260.143799,157.238953 1253.088867,161.773987 
	C1239.196533,170.704391 1232.249268,184.393967 1229.747192,200.721985 
	C1227.533081,215.171310 1229.040771,229.193970 1235.772949,241.811310 
	C1246.862183,262.594788 1265.208130,272.885254 1288.665405,273.987396 
	C1301.977783,274.612823 1314.295410,271.144470 1325.577271,264.161896 
	C1334.870483,258.410095 1340.961792,250.018005 1345.465942,239.772903 
	C1341.800293,238.298279 1338.768677,237.078751 1335.045410,235.505280 
z"/>
<path fill="#2C42FE" opacity="1.000000" stroke="none" 
	d="
M13.717572,134.414810 
	C15.986394,122.113617 21.878759,111.313965 28.490078,101.027298 
	C47.835396,70.927589 74.913155,50.687981 109.697678,42.473392 
	C154.092972,31.989162 194.765228,40.783283 230.233368,70.255623 
	C254.979614,90.818581 270.830750,116.918274 277.566376,148.415543 
	C278.673950,153.594833 278.980042,158.945511 279.190491,164.795074 
	C278.482910,167.130814 278.034210,168.888031 278.030609,170.646164 
	C277.958740,205.789719 277.938171,240.933365 277.528809,275.950195 
	C276.776215,273.966339 276.079315,272.109863 276.075836,270.252106 
	C276.010223,235.432358 275.642975,200.606033 276.225922,165.795929 
	C276.442017,152.891342 272.882019,141.060318 268.963928,129.320251 
	C262.572266,110.168396 251.279892,93.804665 236.850967,79.767738 
	C211.190079,54.803978 180.307083,41.623322 144.513519,41.184574 
	C128.867554,40.992790 113.421715,43.557396 98.432014,48.825329 
	C80.315308,55.192207 64.567863,65.156380 50.517391,78.017654 
	C39.504574,88.098373 31.251129,100.335243 24.527328,113.483719 
	C20.895472,120.585876 18.782053,128.464523 15.617888,135.942200 
	C14.740644,135.399307 14.229107,134.907059 13.717572,134.414810 
z"/>
<path fill="#151864" opacity="1.000000" stroke="none" 
	d="
M792.244019,265.703064 
	C770.299561,251.120010 761.109802,224.580490 765.555237,199.725021 
	C769.973938,175.018951 784.018494,158.340179 807.169067,150.468292 
	C840.246521,139.220947 879.161560,152.702423 891.083740,191.146469 
	C900.713318,222.198074 890.762146,256.594208 856.572632,271.135986 
	C834.623047,280.471802 813.004333,278.515320 792.244019,265.703064 
M865.268433,160.115158 
	C857.746887,154.094040 848.502869,151.303131 839.537354,150.357483 
	C823.514343,148.667435 807.944702,150.192169 793.634949,160.196396 
	C781.675049,168.557846 773.700806,178.901840 770.011902,192.569931 
	C766.176208,206.781998 766.552551,221.234741 771.136597,235.204575 
	C775.193237,247.567047 783.366028,257.360168 794.411987,264.016663 
	C808.240234,272.349792 823.315979,275.707550 839.660583,273.096985 
	C852.829407,270.993683 864.352417,266.093933 873.876648,256.663635 
	C883.798401,246.839661 889.859497,234.983612 890.826965,221.129456 
	C891.663757,209.147476 891.633179,197.119675 886.186462,185.720505 
	C881.364136,175.628342 874.998596,167.021744 865.268433,160.115158 
z"/>
<path fill="#161864" opacity="1.000000" stroke="none" 
	d="
M1162.348145,274.075623 
	C1155.893677,275.018219 1149.809814,276.752533 1143.786377,276.562897 
	C1117.707275,275.741882 1097.483765,264.664764 1085.906494,240.607025 
	C1070.341187,208.262161 1082.675415,167.864502 1117.126099,152.598007 
	C1152.885010,136.751709 1197.014282,155.035324 1206.938232,195.702072 
	C1215.088867,229.101547 1199.319092,261.544830 1165.208740,273.610046 
	C1164.440308,273.881866 1163.569580,273.864471 1162.348145,274.075623 
M1104.343140,260.188721 
	C1114.966309,268.882172 1127.437378,273.530090 1140.858521,273.674133 
	C1151.968262,273.793304 1163.223267,272.671600 1173.582031,267.098267 
	C1188.647949,258.992188 1199.579102,247.145416 1203.656128,230.779541 
	C1207.082642,217.024963 1207.229736,202.724365 1201.937256,188.808762 
	C1195.303223,171.365753 1182.911255,159.636200 1165.946777,153.398300 
	C1152.710938,148.531418 1138.590942,148.196640 1124.889160,152.590057 
	C1106.520142,158.479996 1093.818726,170.318268 1086.482300,188.478027 
	C1076.383057,213.477005 1083.840210,242.660492 1104.343140,260.188721 
z"/>
<path fill="#101263" opacity="1.000000" stroke="none" 
	d="
M919.067322,105.272598 
	C921.183716,105.104759 923.304077,104.752365 925.415894,104.797714 
	C945.530579,105.229652 965.738831,104.666054 985.735779,106.452530 
	C1017.517822,109.291855 1049.200195,130.914917 1057.833374,165.787628 
	C1064.008423,190.731277 1061.068481,214.473404 1047.960815,236.515381 
	C1037.886963,253.455643 1022.637024,264.206787 1003.540039,268.953430 
	C995.883484,270.856506 987.885498,271.385956 979.398865,272.206299 
	C977.149963,271.923096 975.545044,271.974243 973.526001,272.029419 
	C971.721008,272.043823 970.330139,272.054169 968.901123,271.755310 
	C968.842896,271.031128 968.822754,270.616241 969.284119,270.132996 
	C976.216980,269.711304 982.703613,269.660736 989.108887,268.912781 
	C994.641846,268.266754 1000.226440,267.291199 1005.531982,265.638611 
	C1015.219910,262.621033 1023.974854,257.867554 1031.871094,251.221680 
	C1041.296387,243.288834 1048.097168,233.654022 1051.816406,222.166229 
	C1054.426147,214.105286 1056.245728,205.592239 1056.935425,197.159821 
	C1057.654663,188.364548 1057.807739,179.178375 1056.069336,170.596359 
	C1052.091919,150.959641 1042.042725,134.863586 1024.963623,123.493172 
	C1010.351624,113.765213 994.046631,109.089745 976.919434,108.206535 
	C958.319275,107.247368 939.635864,107.904228 920.906799,107.593002 
	C920.239075,106.643913 919.653198,105.958252 919.067322,105.272598 
z"/>
<path fill="#1D216D" opacity="1.000000" stroke="none" 
	d="
M371.922882,273.651123 
	C361.821167,273.651123 351.719482,273.651123 341.202972,273.651123 
	C341.202972,260.027679 341.200928,246.746521 341.203369,233.465363 
	C341.210907,192.174942 341.256348,150.884415 341.159851,109.594238 
	C341.152161,106.302467 341.982849,105.255280 345.373749,105.358093 
	C354.016815,105.620155 362.672424,105.470619 371.673584,106.151016 
	C371.689850,117.625778 371.172028,128.433884 371.089478,139.245331 
	C371.039246,145.828735 371.769287,152.414383 371.943726,159.004456 
	C372.075958,164.000839 371.884308,169.005783 371.465881,173.890442 
	C370.742188,172.073151 370.089539,170.373550 370.082642,168.671310 
	C370.007629,150.180130 369.960388,131.688019 370.092682,113.197495 
	C370.120178,109.354622 368.902557,107.709618 364.918701,107.913414 
	C360.266388,108.151398 355.592529,107.965172 350.928009,107.967781 
	C343.980560,107.971672 343.970215,107.973457 343.969879,114.846298 
	C343.967651,164.989853 343.969360,215.133392 343.973511,265.276947 
	C343.973602,266.608795 343.629700,268.124603 344.151459,269.218201 
	C344.627075,270.215118 346.056396,271.381500 347.076019,271.391571 
	C353.052277,271.450653 359.039703,270.940857 365.007202,271.130432 
	C368.919708,271.254700 370.162476,270.092743 370.121826,266.079071 
	C369.926178,246.756638 369.992249,227.430862 370.111115,208.107162 
	C370.121674,206.389648 371.180420,204.678574 371.794983,203.433350 
	C371.866058,227.151825 371.894470,250.401474 371.922882,273.651123 
z"/>
<path fill="#25267A" opacity="1.000000" stroke="none" 
	d="
M673.106873,273.645416 
	C665.018372,273.645416 656.929871,273.645416 648.367798,273.645416 
	C648.367798,216.549454 648.367798,159.693146 648.826538,102.416199 
	C650.141541,102.028862 650.997864,102.062149 651.885071,102.553711 
	C651.586914,114.134850 651.012024,125.257484 651.001709,136.380630 
	C650.992432,146.423218 651.853149,156.465424 651.890320,166.509415 
	C652.012939,199.674255 651.991638,232.840073 651.861511,266.004852 
	C651.846436,269.853851 652.795837,271.375793 656.880920,271.155487 
	C662.862671,270.832825 668.875671,271.088348 674.671936,271.349335 
	C674.014648,272.282562 673.560730,272.963989 673.106873,273.645416 
z"/>
<path fill="#12135F" opacity="1.000000" stroke="none" 
	d="
M620.885742,205.987854 
	C620.950012,208.372772 621.014343,210.757675 620.699341,213.709167 
	C619.564880,214.524750 618.809814,214.773773 618.083862,214.622467 
	C618.377441,212.601974 619.110046,210.894699 618.827576,209.376266 
	C617.357056,201.471283 616.133057,193.467224 613.890259,185.769485 
	C608.159485,166.100693 588.691101,149.915924 567.133728,149.929672 
	C559.435852,149.934586 551.986938,150.567886 544.550049,152.809708 
	C534.071289,155.968475 525.340271,161.834976 518.265198,169.790588 
	C509.746033,179.369995 505.021027,190.711273 503.659698,203.785065 
	C502.246033,217.361771 503.466003,230.166473 509.611542,242.399353 
	C511.714172,246.584671 513.834656,250.761032 515.777466,254.950287 
	C515.607910,254.959061 515.269226,254.981903 515.269226,254.981903 
	C508.171082,246.862320 503.355957,237.604736 501.902588,226.857605 
	C501.063507,220.652527 500.208160,214.363647 500.323700,208.130325 
	C500.829132,180.860428 520.730774,156.269318 546.220276,149.535248 
	C564.445129,144.720444 581.322998,146.306808 596.642944,157.498917 
	C607.653809,165.542984 614.889343,176.442459 618.101318,190.602402 
	C618.450012,192.284958 618.839661,193.184601 619.229309,194.084229 
	C619.434814,195.194214 619.640320,196.304199 619.571045,198.017822 
	C619.826111,201.076920 620.355957,203.532379 620.885742,205.987854 
z"/>
<path fill="#161965" opacity="1.000000" stroke="none" 
	d="
M530.885193,219.896225 
	C532.393372,233.825958 538.349548,244.658005 552.452026,249.083008 
	C569.128296,254.315582 583.385742,250.121124 595.033142,236.706451 
	C602.514832,240.597702 609.917725,244.447983 617.354431,248.315811 
	C594.873108,285.689667 540.907715,283.941315 516.221558,256.185547 
	C516.165771,255.826599 516.241150,255.746307 516.419128,255.801971 
	C516.597107,255.857635 516.963989,255.925003 517.221191,255.951843 
	C517.650757,255.976089 517.823120,255.973495 518.339600,256.018555 
	C519.262817,256.373444 519.981750,256.551880 520.400818,257.006592 
	C534.319702,272.109711 552.870789,273.829712 571.540283,273.769531 
	C583.354065,273.731415 594.140930,268.832520 603.186401,261.095093 
	C607.080322,257.764221 610.127014,253.442856 613.644165,249.475021 
	C607.688477,246.097137 602.742310,243.131180 597.608093,240.537354 
	C596.747864,240.102798 594.862244,240.998459 593.818054,241.774261 
	C591.700867,243.347305 590.015442,245.529266 587.834167,246.983490 
	C579.098694,252.807373 569.651672,254.786530 559.088867,253.152649 
	C543.005310,250.664810 532.411865,241.771286 529.234619,226.459274 
	C528.811584,224.420563 530.188110,222.008438 530.769287,219.801468 
	C530.807434,219.833710 530.885193,219.896225 530.885193,219.896225 
z"/>
<path fill="#3349FD" opacity="1.000000" stroke="none" 
	d="
M13.442969,134.674194 
	C14.229107,134.907059 14.740644,135.399307 15.473442,136.289795 
	C14.140682,143.736160 11.314543,150.771179 11.241779,157.834549 
	C10.811364,199.615540 10.840307,241.404526 11.165520,283.187286 
	C11.230698,291.561218 17.841225,299.986115 27.993851,301.287537 
	C28.007671,301.949890 28.005606,302.327148 28.020319,302.984344 
	C28.060678,303.449738 28.084257,303.635193 28.107838,303.820618 
	C27.600166,303.875702 27.092495,303.930786 26.212526,304.076599 
	C13.093646,299.209991 7.632884,291.252777 7.666307,277.588470 
	C7.756664,240.648178 7.491254,203.700760 8.200089,166.772156 
	C8.404336,156.131424 11.434057,145.544922 13.442969,134.674194 
z"/>
<path fill="#393D97" opacity="1.000000" stroke="none" 
	d="
M371.836792,174.006927 
	C371.884308,169.005783 372.075958,164.000839 371.943726,159.004456 
	C371.769287,152.414383 371.039246,145.828735 371.089478,139.245331 
	C371.172028,128.433884 371.689850,117.625778 372.020691,106.371323 
	C372.361633,107.417473 373.000336,108.907463 373.005920,110.399834 
	C373.080933,130.376053 373.067566,150.352585 373.076019,170.329056 
	C373.076477,171.452087 373.076050,172.575104 373.076050,173.958771 
	C396.910187,173.958771 420.296021,173.958771 444.051117,173.958771 
	C444.171936,172.837311 444.388245,171.761246 444.388916,170.685043 
	C444.401733,150.375839 444.464813,130.066025 444.308746,109.757942 
	C444.282074,106.285507 445.105316,105.082504 448.781342,105.227676 
	C456.426422,105.529594 464.099426,105.493904 471.746643,105.210625 
	C475.401703,105.075241 476.228729,106.385521 476.222778,109.801399 
	C476.129761,163.238205 476.168579,216.675247 476.049438,270.111969 
	C476.046600,271.393097 474.576355,272.670959 473.380096,273.507446 
	C473.260101,272.071106 473.550537,271.077637 473.891632,269.649323 
	C474.231628,264.113434 474.520935,259.012421 474.854370,253.453018 
	C474.882507,235.670685 474.866516,218.346725 474.899719,200.683533 
	C474.915497,199.889755 474.882050,199.435165 474.875671,198.514099 
	C474.877991,187.700317 474.853241,177.353012 474.885345,166.542542 
	C474.906464,161.387146 474.870667,156.694916 474.863464,151.534882 
	C474.878082,140.380722 474.864136,129.694351 474.902710,118.580818 
	C474.921692,116.433746 474.888184,114.713852 474.874420,112.665314 
	C474.880463,111.898148 474.866760,111.459610 474.902405,110.682671 
	C474.928162,109.889725 474.904510,109.435196 474.857849,108.561874 
	C465.320892,107.567635 455.806976,106.992180 445.975189,106.397507 
	C445.975189,128.555542 445.880554,149.362122 446.053955,170.166458 
	C446.089172,174.394501 445.060028,176.046143 440.476959,176.002762 
	C417.993408,175.789932 395.506775,175.909164 372.907501,175.655060 
	C372.474823,174.934998 372.155823,174.470963 371.836792,174.006927 
z"/>
<path fill="#394CFE" opacity="1.000000" stroke="none" 
	d="
M272.992065,75.813339 
	C272.986450,77.118248 273.210724,78.036629 272.935211,78.766304 
	C272.227386,80.640846 271.297821,82.431679 270.456848,84.255951 
	C268.642761,83.392609 266.424530,82.936119 265.079742,81.600327 
	C255.903091,72.485100 246.989166,63.105286 237.806946,53.995838 
	C235.235870,51.445152 231.770355,49.785675 229.254379,47.193916 
	C227.861023,45.758587 226.557907,42.905556 227.081345,41.300514 
	C227.644470,39.573719 230.361694,37.463882 232.192368,37.412277 
	C244.002731,37.079350 255.831390,37.100746 267.645813,37.368580 
	C271.708801,37.460690 273.044647,40.521099 273.015869,44.374557 
	C272.938690,54.696136 272.992554,65.018700 272.992065,75.813339 
M239.768951,51.694061 
	C247.886398,59.894196 255.966125,68.132416 264.163635,76.251709 
	C265.337799,77.414673 267.081055,78.003082 268.560913,78.857391 
	C269.035034,77.246162 269.942200,75.626831 269.912231,74.025040 
	C269.732483,64.420425 269.238892,54.821579 269.068756,45.216934 
	C269.010925,41.949940 267.118164,41.954529 264.805237,41.961559 
	C254.408524,41.993145 244.011536,41.954445 233.614990,42.006077 
	C232.443100,42.011894 231.273254,42.428371 230.102463,42.654415 
	C229.916275,43.140854 229.730087,43.627289 229.543900,44.113724 
	C232.779083,46.480606 236.014252,48.847488 239.768951,51.694061 
z"/>
<path fill="#31376E" opacity="1.000000" stroke="none" 
	d="
M918.784424,105.402237 
	C919.653198,105.958252 920.239075,106.643913 920.900269,107.622726 
	C920.975586,107.915886 920.977478,107.974632 920.641968,108.238510 
	C920.162170,109.475677 919.892151,110.448906 919.891724,111.422256 
	C919.870667,162.629959 919.863953,213.837677 919.915894,265.045349 
	C919.917297,266.437744 920.575012,267.829468 920.995605,269.555054 
	C936.977173,269.992859 952.889893,270.097107 968.802612,270.201355 
	C968.822754,270.616241 968.842896,271.031128 968.438660,271.756470 
	C952.729187,272.066925 937.444031,272.066925 922.158875,272.066925 
	C938.896545,273.094116 955.628723,273.103882 972.360657,273.049194 
	C972.888306,273.047485 973.413696,272.381653 973.940186,272.025421 
	C975.545044,271.974243 977.149963,271.923096 978.943481,272.138367 
	C976.215759,272.738007 973.301575,273.336273 970.382568,273.360382 
	C954.417175,273.492371 938.448792,273.367767 922.485718,273.609894 
	C918.823486,273.665405 918.033875,272.484070 918.045227,269.039001 
	C918.195007,223.637192 918.192566,178.234863 918.259644,132.832718 
	C918.273132,123.732338 918.417542,114.632156 918.784424,105.402237 
z"/>
<path fill="#20216B" opacity="1.000000" stroke="none" 
	d="
M741.733032,102.951691 
	C741.809753,103.942535 741.953552,104.933388 741.953552,105.924232 
	C741.952759,159.994720 741.939941,214.065201 741.573364,268.736603 
	C740.492493,269.572021 739.766479,269.806488 739.026001,270.026245 
	C739.011475,270.011566 738.981567,269.983154 739.003052,269.516174 
	C739.030945,250.788620 739.041443,232.528030 739.043091,214.267426 
	C739.046082,180.794327 739.041443,147.321228 739.047302,113.848129 
	C739.047974,109.934143 739.094727,106.020157 739.606812,102.004425 
	C740.645447,101.544388 741.197388,101.186104 741.749329,100.827820 
	C741.812622,100.987282 741.875977,101.146744 741.689209,101.715088 
	C741.360413,102.462524 741.458374,102.738434 741.733032,102.951691 
z"/>
<path fill="#07074A" opacity="1.000000" stroke="none" 
	d="
M651.854187,102.095428 
	C650.997864,102.062149 650.141541,102.028862 648.964966,101.962906 
	C648.606201,101.395935 648.567688,100.861641 649.031555,100.144279 
	C649.730347,99.920486 649.926697,99.879761 650.574829,99.854523 
	C654.049988,99.676445 657.073364,99.482880 660.096741,99.289307 
	C661.070374,99.279335 662.044067,99.269371 663.807556,99.497627 
	C668.679260,99.779900 672.761108,99.823944 677.213135,99.916054 
	C678.079956,99.957420 678.576660,99.950706 679.073364,99.944000 
	C679.073364,99.944000 678.997986,99.991302 678.973511,100.347847 
	C678.937134,101.746956 678.925232,102.789528 678.939270,104.310623 
	C678.979675,160.212753 678.994202,215.636353 678.971497,271.402252 
	C678.974487,272.201752 679.014648,272.658936 679.054871,273.116089 
	C678.562012,273.353912 678.069214,273.591736 677.047302,273.560974 
	C676.143738,273.407166 675.769165,273.521942 675.394653,273.636719 
	C674.819458,273.686981 674.244202,273.737244 673.387939,273.716461 
	C673.560730,272.963989 674.014648,272.282562 675.081055,271.238220 
	C676.128906,269.227295 676.931763,267.581635 676.942261,265.930908 
	C677.039673,250.627533 677.000916,235.323273 677.001038,220.019272 
	C677.001404,182.424652 676.941406,144.829803 677.087463,107.235756 
	C677.103455,103.128807 676.025574,101.669174 671.807190,101.896919 
	C665.171936,102.255150 658.506714,102.057640 651.854187,102.095428 
z"/>
<path fill="#393D97" opacity="1.000000" stroke="none" 
	d="
M372.327942,273.532410 
	C371.894470,250.401474 371.866058,227.151825 371.959320,203.193726 
	C372.385254,201.999603 372.689545,201.513931 373.462891,201.004242 
	C397.274567,200.962875 420.617157,200.945557 444.229675,200.998917 
	C444.970184,201.345673 445.440704,201.621735 445.951477,202.376282 
	C445.989014,224.722153 445.966492,246.589630 446.027008,268.456848 
	C446.031158,269.961487 446.655212,271.464447 447.036469,273.155579 
	C447.081940,273.342957 447.017578,273.723206 447.017578,273.723206 
	C443.496124,274.384125 444.335327,271.975708 444.342590,270.022705 
	C444.424255,248.074692 444.476868,226.126572 444.521118,204.178436 
	C444.521729,203.875092 444.314545,203.571320 444.060699,202.872070 
	C420.687317,202.872070 397.173981,202.872070 373.001892,202.872070 
	C373.001892,204.759064 372.999084,206.693527 373.002319,208.628006 
	C373.037201,229.582962 373.076385,250.537903 373.092712,271.492859 
	C373.093201,272.133057 372.858154,272.773438 372.327942,273.532410 
z"/>
<path fill="#00002E" opacity="1.000000" stroke="none" 
	d="
M711.867554,99.788795 
	C712.027954,99.665375 712.188416,99.541946 712.687988,99.919998 
	C713.078247,100.948257 713.129517,101.475060 713.112793,102.467255 
	C713.051636,159.574799 713.058350,216.216949 712.997925,273.049957 
	C712.930664,273.240814 712.940857,273.645386 712.940918,273.645386 
	C712.347168,272.265900 711.237732,270.887604 711.234619,269.506836 
	C711.141418,227.763336 711.161926,186.019592 711.153564,144.275879 
	C711.150696,130.139893 711.117798,116.003899 711.371460,101.282349 
	C711.886108,100.435349 711.960510,100.132690 711.867554,99.788795 
z"/>
<path fill="#192DFF" opacity="1.000000" stroke="none" 
	d="
M277.907257,276.076996 
	C277.938171,240.933365 277.958740,205.789719 278.030609,170.646164 
	C278.034210,168.888031 278.482910,167.130814 279.056702,165.213440 
	C279.493774,178.019806 279.658081,190.985794 279.690399,203.952103 
	C279.752991,229.074036 279.759827,254.196167 279.723450,279.318115 
	C279.720673,281.231873 279.193481,283.144836 278.469177,284.844116 
	C277.986786,284.392639 277.945282,284.155212 277.915466,283.483948 
	C277.920532,280.725739 277.913879,278.401367 277.907257,276.076996 
z"/>
<path fill="#12135F" opacity="1.000000" stroke="none" 
	d="
M616.832275,219.063004 
	C589.187134,219.096100 561.542053,219.129181 533.335083,218.806946 
	C532.509216,217.994415 532.245239,217.537186 532.451416,217.052460 
	C561.281677,216.979492 589.641785,216.934006 618.252197,217.091400 
	C618.670532,217.903473 618.838562,218.512695 619.006531,219.121918 
	C619.006531,219.121918 618.773010,219.289169 618.229736,219.170776 
	C617.401794,219.055939 617.117004,219.059479 616.832275,219.063004 
z"/>
<path fill="#727CB9" opacity="1.000000" stroke="none" 
	d="
M679.008728,271.059937 
	C678.994202,215.636353 678.979675,160.212753 679.121582,104.275726 
	C679.278015,103.762291 679.647278,103.798164 679.647278,103.798164 
	C679.929810,105.516457 680.212402,107.234749 680.756958,109.810928 
	C681.008301,123.579315 680.997559,136.489822 680.986816,149.400345 
	C680.818420,152.824997 680.650085,156.249664 680.745911,160.698730 
	C680.997314,183.934448 680.984619,206.145767 680.971863,228.357071 
	C680.810303,230.935898 680.648682,233.514725 680.748779,237.389526 
	C681.119690,248.282578 681.311829,257.880310 681.233582,267.475830 
	C681.223816,268.676514 679.785278,269.865540 679.008728,271.059937 
z"/>
<path fill="#161864" opacity="1.000000" stroke="none" 
	d="
M713.180786,102.001862 
	C713.129517,101.475060 713.078247,100.948257 712.971680,100.028183 
	C722.042297,99.445969 731.167908,99.238235 740.294739,99.119385 
	C740.790771,99.112923 741.296570,99.849579 741.773560,100.534073 
	C741.197388,101.186104 740.645447,101.544388 739.125854,101.962646 
	C729.832458,102.015694 721.506653,102.008774 713.180786,102.001862 
z"/>
<path fill="#000155" opacity="1.000000" stroke="none" 
	d="
M447.485687,273.767273 
	C447.017578,273.723206 447.081940,273.342957 447.047241,272.817871 
	C447.026825,271.841553 447.041107,271.390289 447.520142,270.959808 
	C456.603607,270.681763 465.222290,270.382965 473.841003,270.084167 
	C473.550537,271.077637 473.260101,272.071106 472.957092,273.384583 
	C464.614319,273.740173 456.284058,273.775726 447.485687,273.767273 
z"/>
<path fill="#25267A" opacity="1.000000" stroke="none" 
	d="
M681.074707,228.845383 
	C680.984619,206.145767 680.997314,183.934448 681.012329,161.699341 
	C680.946716,161.121338 680.878845,160.567139 680.702209,159.124680 
	C680.246765,160.474213 679.959778,160.928345 679.959290,161.382751 
	C679.935425,183.593353 679.934814,205.803970 679.943237,228.014587 
	C679.943420,228.496017 680.035461,228.992416 680.194397,229.443130 
	C680.219238,229.513458 680.834961,229.375397 681.074707,228.845383 
z"/>
<path fill="#2C42FE" opacity="1.000000" stroke="none" 
	d="
M277.903809,283.917786 
	C277.945282,284.155212 277.986786,284.392639 278.081970,284.987640 
	C278.238495,293.625610 271.555359,301.255005 262.119934,303.636047 
	C261.143555,303.927734 260.404205,303.941254 259.327881,303.651367 
	C258.995880,303.178009 259.000824,303.008087 259.193420,302.539490 
	C266.085419,299.883301 271.901886,296.388153 275.213684,289.746124 
	C276.168060,287.832092 277.010223,285.862122 277.903809,283.917786 
z"/>
<path fill="#25267A" opacity="1.000000" stroke="none" 
	d="
M681.076233,149.888229 
	C680.997559,136.489822 681.008301,123.579315 681.021240,110.643616 
	C680.935913,110.084755 680.848389,109.551086 680.760803,109.017418 
	C680.548279,109.032387 680.335693,109.047356 680.123108,109.062332 
	C680.123108,122.856766 680.122437,136.651199 680.133240,150.445618 
	C680.133362,150.589264 680.285339,150.732773 680.366394,150.876343 
	C680.632812,150.709610 680.899231,150.542862 681.076233,149.888229 
z"/>
<path fill="#161864" opacity="1.000000" stroke="none" 
	d="
M713.402405,273.749451 
	C712.940857,273.645386 712.930664,273.240814 713.378845,273.041534 
	C719.236145,272.275177 724.645203,271.708069 730.048584,271.457001 
	C730.022461,272.404755 730.002136,273.036499 729.981812,273.668274 
	C724.609192,273.730011 719.236572,273.791748 713.402405,273.749451 
z"/>
<path fill="#25267A" opacity="1.000000" stroke="none" 
	d="
M678.971497,271.402252 
	C679.785278,269.865540 681.223816,268.676514 681.233582,267.475830 
	C681.311829,257.880310 681.119690,248.282578 681.012695,238.660965 
	C681.015015,238.208176 681.015015,237.779938 681.015015,237.351700 
	C680.573425,237.344421 680.131897,237.337143 679.690308,237.329865 
	C679.690308,249.136047 679.690308,260.942261 679.372559,272.932281 
	C679.014648,272.658936 678.974487,272.201752 678.971497,271.402252 
z"/>
<path fill="#20216B" opacity="1.000000" stroke="none" 
	d="
M730.419006,273.770020 
	C730.002136,273.036499 730.022461,272.404755 730.468872,271.421539 
	C733.590515,270.707764 736.286011,270.345459 738.981567,269.983154 
	C738.981567,269.983154 739.011475,270.011566 738.975342,270.337585 
	C738.630615,271.661102 738.322021,272.658569 738.013428,273.656006 
	C735.627625,273.727936 733.241943,273.799835 730.419006,273.770020 
z"/>
<path fill="#161864" opacity="1.000000" stroke="none" 
	d="
M738.407104,273.753418 
	C738.322021,272.658569 738.630615,271.661102 738.989868,270.352295 
	C739.766479,269.806488 740.492493,269.572021 741.473022,269.199524 
	C741.825623,271.314056 743.193787,274.342773 738.407104,273.753418 
z"/>
<path fill="#25267A" opacity="1.000000" stroke="none" 
	d="
M678.967163,99.582924 
	C678.576660,99.950706 678.079956,99.957420 677.136353,99.455139 
	C673.696350,98.915138 670.703247,98.884125 667.710083,98.853111 
	C671.427002,98.976028 675.143982,99.098938 678.967163,99.582924 
z"/>
<path fill="#727CB9" opacity="1.000000" stroke="none" 
	d="
M667.283997,98.786797 
	C670.703247,98.884125 673.696350,98.915138 676.766235,99.407066 
	C672.761108,99.823944 668.679260,99.779900 664.172485,99.492783 
	C664.784302,99.073303 665.821106,98.896889 667.283997,98.786797 
z"/>
<path fill="#161965" opacity="1.000000" stroke="none" 
	d="
M620.973450,205.570862 
	C620.355957,203.532379 619.826111,201.076920 619.530640,198.355927 
	C620.196960,200.444901 620.629028,202.799393 620.973450,205.570862 
z"/>
<path fill="#161965" opacity="1.000000" stroke="none" 
	d="
M619.412720,219.133942 
	C618.838562,218.512695 618.670532,217.903473 618.255615,216.781418 
	C618.024048,215.853302 618.039368,215.438049 618.054688,215.022797 
	C618.809814,214.773773 619.564880,214.524750 620.593872,214.145050 
	C620.518127,215.724915 620.168457,217.435455 619.412720,219.133942 
z"/>
<path fill="#727CB9" opacity="1.000000" stroke="none" 
	d="
M659.325867,98.972313 
	C657.073364,99.482880 654.049988,99.676445 650.507629,99.642288 
	C649.988647,99.414566 650.026062,98.969910 650.026062,98.969910 
	C651.058411,98.803947 652.090820,98.637985 653.897827,98.243263 
	C655.443176,98.041664 656.213928,98.068832 656.984619,98.095993 
	C657.508057,98.282433 658.031555,98.468872 659.325867,98.972313 
z"/>
<path fill="#25267A" opacity="1.000000" stroke="none" 
	d="
M657.382080,98.008118 
	C656.213928,98.068832 655.443176,98.041664 654.646729,98.009857 
	C654.402344,98.275902 654.183594,98.546577 653.964905,98.817261 
	C655.236450,98.518250 656.507996,98.219246 657.382080,98.008118 
z"/>
<path fill="#25267A" opacity="1.000000" stroke="none" 
	d="
M679.735474,103.535400 
	C679.647278,103.798164 679.278015,103.762291 679.095703,103.797195 
	C678.925232,102.789528 678.937134,101.746956 679.003662,100.314987 
	C679.313477,101.041267 679.568604,102.156952 679.735474,103.535400 
z"/>
<path fill="#161965" opacity="1.000000" stroke="none" 
	d="
M619.339111,193.823395 
	C618.839661,193.184601 618.450012,192.284958 618.100891,190.989655 
	C618.577271,191.583496 619.013123,192.573013 619.339111,193.823395 
z"/>
<path fill="#161965" opacity="1.000000" stroke="none" 
	d="
M531.981201,217.079956 
	C532.245239,217.537186 532.509216,217.994415 532.876648,218.695007 
	C532.436401,219.140152 531.892822,219.341934 531.117188,219.719971 
	C530.885193,219.896225 530.807434,219.833710 530.842224,219.497314 
	C531.245056,218.467255 531.613098,217.773590 531.981201,217.079956 
z"/>
<path fill="#25267A" opacity="1.000000" stroke="none" 
	d="
M649.842651,98.923439 
	C650.026062,98.969910 649.988647,99.414566 650.055786,99.626801 
	C649.926697,99.879761 649.730347,99.920486 649.233276,99.954941 
	C649.174927,99.591446 649.417114,99.234207 649.842651,98.923439 
z"/>
<path fill="#161965" opacity="1.000000" stroke="none" 
	d="
M515.279663,255.219193 
	C515.269226,254.981903 515.607910,254.959061 515.846130,255.153687 
	C516.084351,255.348312 516.241150,255.746307 516.241150,255.746307 
	C516.241150,255.746307 516.165771,255.826599 516.128296,255.866943 
	C515.743896,255.899094 515.476929,255.748825 515.279663,255.219193 
z"/>
<path fill="#25267A" opacity="1.000000" stroke="none" 
	d="
M675.650818,273.758972 
	C675.769165,273.521942 676.143738,273.407166 676.759766,273.484802 
	C676.636475,273.745239 676.271729,273.813232 675.650818,273.758972 
z"/>
<path fill="#20216B" opacity="1.000000" stroke="none" 
	d="
M711.582520,99.837181 
	C711.960510,100.132690 711.886108,100.435349 711.432373,100.812851 
	C711.246094,100.581131 711.271790,100.233353 711.582520,99.837181 
z"/>
<path fill="#161864" opacity="1.000000" stroke="none" 
	d="
M741.820435,102.765083 
	C741.458374,102.738434 741.360413,102.462524 741.599731,101.956390 
	C741.929504,102.029617 741.978638,102.292839 741.820435,102.765083 
z"/>
<path fill="#161965" opacity="1.000000" stroke="none" 
	d="
M617.021240,219.199432 
	C617.117004,219.059479 617.401794,219.055939 618.115112,219.084351 
	C618.099182,219.189468 617.654724,219.262665 617.021240,219.199432 
z"/>
<path fill="#485DFF" opacity="1.000000" stroke="none" 
	d="
M277.915466,283.483948 
	C277.010223,285.862122 276.168060,287.832092 275.213684,289.746124 
	C271.901886,296.388153 266.085419,299.883301 258.802734,302.572449 
	C257.451416,302.807312 256.678406,302.710510 255.795624,302.260803 
	C254.125992,301.606354 252.566559,301.044495 251.006195,301.041931 
	C221.015747,300.992889 191.025223,301.009460 161.016632,300.543335 
	C161.154053,273.394745 161.326492,246.715317 161.366852,220.035690 
	C161.367859,219.371399 159.908432,218.704880 159.130127,218.039413 
	C160.281586,215.865585 161.433044,213.691757 163.168976,211.210693 
	C164.625504,209.999969 165.717773,209.225204 166.333420,208.171844 
	C170.011795,201.878418 175.409531,197.538757 181.723007,194.148727 
	C182.616486,193.668976 183.280945,192.762726 184.461395,192.049301 
	C186.244873,192.021072 187.618362,191.997391 189.404541,191.928177 
	C192.603882,191.583511 195.383987,191.181885 198.178345,191.003525 
	C208.682495,190.333054 214.232773,182.463913 215.769043,173.586517 
	C216.876541,167.186951 207.779663,157.951950 200.224716,156.972183 
	C195.160889,156.315521 189.922699,156.283768 185.063339,154.909088 
	C172.041595,151.225311 159.878036,135.957382 160.989548,118.679276 
	C161.436188,111.736092 157.828690,106.967644 151.794815,104.138214 
	C145.662537,101.262634 138.784225,102.867722 133.925110,107.506645 
	C129.668259,111.570595 127.553978,116.484329 128.080948,122.226463 
	C128.675156,128.701523 126.287544,134.241226 123.211334,139.491241 
	C116.648483,150.691742 106.911346,156.324158 93.668930,156.102509 
	C84.390663,155.947205 76.142944,162.977798 75.000252,170.955887 
	C73.761223,179.606613 79.998047,189.032669 88.229195,190.270020 
	C90.359024,190.730576 92.274940,190.825317 94.157059,191.129288 
	C98.023247,191.753693 102.144157,191.831497 105.679115,193.295776 
	C120.091759,199.265839 127.268784,210.452835 128.080856,225.936813 
	C128.136505,226.997818 129.185806,228.006714 129.820496,229.503326 
	C129.901535,252.533157 129.969849,275.099609 129.890625,297.665527 
	C129.885330,299.174927 128.762405,300.680389 127.863480,301.861633 
	C125.774208,301.357208 123.980927,301.025055 122.187309,301.023285 
	C90.784218,300.992310 59.381084,301.001770 27.977962,301.002441 
	C17.841225,299.986115 11.230698,291.561218 11.165520,283.187286 
	C10.840307,241.404526 10.811364,199.615540 11.241779,157.834549 
	C11.314543,150.771179 14.140682,143.736160 15.839148,136.340454 
	C18.782053,128.464523 20.895472,120.585876 24.527328,113.483719 
	C31.251129,100.335243 39.504574,88.098373 50.517391,78.017654 
	C64.567863,65.156380 80.315308,55.192207 98.432014,48.825329 
	C113.421715,43.557396 128.867554,40.992790 144.513519,41.184574 
	C180.307083,41.623322 211.190079,54.803978 236.850967,79.767738 
	C251.279892,93.804665 262.572266,110.168396 268.963928,129.320251 
	C272.882019,141.060318 276.442017,152.891342 276.225922,165.795929 
	C275.642975,200.606033 276.010223,235.432358 276.075836,270.252106 
	C276.079315,272.109863 276.776215,273.966339 277.528809,275.950195 
	C277.913879,278.401367 277.920532,280.725739 277.915466,283.483948 
z"/>
<path fill="#3146FE" opacity="1.000000" stroke="none" 
	d="
M87.999977,189.998901 
	C79.998047,189.032669 73.761223,179.606613 75.000252,170.955887 
	C76.142944,162.977798 84.390663,155.947205 93.668930,156.102509 
	C106.911346,156.324158 116.648483,150.691742 123.211334,139.491241 
	C126.287544,134.241226 128.675156,128.701523 128.080948,122.226463 
	C127.553978,116.484329 129.668259,111.570595 133.925110,107.506645 
	C138.784225,102.867722 145.662537,101.262634 151.794815,104.138214 
	C157.828690,106.967644 161.436188,111.736092 160.989548,118.679276 
	C159.878036,135.957382 172.041595,151.225311 185.063339,154.909088 
	C189.922699,156.283768 195.160889,156.315521 200.224716,156.972183 
	C207.779663,157.951950 216.876541,167.186951 215.769043,173.586517 
	C214.232773,182.463913 208.682495,190.333054 198.178345,191.003525 
	C195.383987,191.181885 192.603882,191.583511 189.351852,191.560211 
	C188.401398,190.706696 187.916321,190.175629 187.431229,189.644562 
	C190.638947,189.162689 193.832947,188.537033 197.057297,188.229706 
	C203.245117,187.639938 208.444519,185.368958 211.046005,179.425568 
	C213.172943,174.566345 212.654358,169.652939 209.492310,165.257233 
	C206.405090,160.965561 201.965805,159.056870 196.875427,159.666092 
	C181.649597,161.488358 163.437546,147.083237 159.746048,131.928635 
	C158.777267,127.951454 158.876450,123.706207 158.567886,119.577888 
	C158.047302,112.613014 154.826080,108.003807 149.164078,106.258820 
	C143.459961,104.500847 137.566925,105.950836 134.533386,110.759079 
	C132.867081,113.400215 131.853424,116.875298 131.752960,120.013016 
	C131.141922,139.096741 120.588722,153.234848 102.256165,158.549591 
	C99.285004,159.410950 96.033287,159.492859 92.901764,159.575470 
	C85.225075,159.777969 79.727425,163.597229 78.391624,169.924820 
	C76.684914,178.009369 79.677872,183.750748 87.678391,187.693939 
	C87.984840,188.814087 87.992409,189.406494 87.999977,189.998901 
z"/>
<path fill="#010DFF" opacity="1.000000" stroke="none" 
	d="
M128.159302,302.187683 
	C128.762405,300.680389 129.885330,299.174927 129.890625,297.665527 
	C129.969849,275.099609 129.901535,252.533157 129.897339,229.089142 
	C130.344589,226.432281 130.762497,224.653107 131.180389,222.873932 
	C131.305328,241.260803 131.452774,259.647552 131.545227,278.034607 
	C131.587723,286.488312 131.522430,294.942596 131.311691,303.781952 
	C100.572098,304.107391 70.026817,304.048798 39.481548,303.985901 
	C35.995567,303.978699 32.509632,303.947540 28.565758,303.874084 
	C28.084257,303.635193 28.060678,303.449738 28.486156,303.042419 
	C60.561695,302.839386 92.188187,302.867249 123.814644,302.847595 
	C125.263000,302.846710 126.711090,302.417450 128.159302,302.187683 
z"/>
<path fill="#394CFE" opacity="1.000000" stroke="none" 
	d="
M131.274048,222.474670 
	C130.762497,224.653107 130.344589,226.432281 129.849854,228.625641 
	C129.185806,228.006714 128.136505,226.997818 128.080856,225.936813 
	C127.268784,210.452835 120.091759,199.265839 105.679115,193.295776 
	C102.144157,191.831497 98.023247,191.753693 94.157059,191.129288 
	C92.274940,190.825317 90.359024,190.730576 88.229195,190.270020 
	C87.992409,189.406494 87.984840,188.814087 87.967667,187.926666 
	C94.731773,188.787140 101.944916,188.838837 108.189018,191.324646 
	C121.784920,196.737289 128.376968,208.242493 131.274048,222.474670 
z"/>
<path fill="#192DFF" opacity="1.000000" stroke="none" 
	d="
M159.059967,218.501068 
	C159.908432,218.704880 161.367859,219.371399 161.366852,220.035690 
	C161.326492,246.715317 161.154053,273.394745 161.012863,300.841370 
	C161.095032,301.998810 161.162918,302.389008 160.832855,302.832581 
	C159.900345,302.912445 159.365768,302.938934 158.831207,302.965424 
	C158.884079,274.964508 158.936951,246.963608 159.059967,218.501068 
z"/>
<path fill="#010DFF" opacity="1.000000" stroke="none" 
	d="
M158.715027,303.220337 
	C159.365768,302.938934 159.900345,302.912445 161.278229,302.872864 
	C174.096603,302.861176 186.071716,302.892853 198.046646,302.857025 
	C217.332962,302.799316 236.619156,302.697113 255.905396,302.613708 
	C256.678406,302.710510 257.451416,302.807312 258.615112,302.871124 
	C259.000824,303.008087 258.995880,303.178009 258.961609,303.601135 
	C225.872757,303.910797 192.813232,303.967316 159.270508,304.013336 
	C158.724472,303.826996 158.661667,303.651123 158.715027,303.220337 
z"/>
<path fill="#2C42FE" opacity="1.000000" stroke="none" 
	d="
M184.051422,192.053864 
	C183.280945,192.762726 182.616486,193.668976 181.723007,194.148727 
	C175.409531,197.538757 170.011795,201.878418 166.333420,208.171844 
	C165.717773,209.225204 164.625504,209.999969 163.408386,210.944794 
	C165.588699,206.793930 167.605072,202.150009 170.798935,198.551056 
	C173.399536,195.620605 177.409897,193.941223 181.563156,191.810333 
	C182.886307,191.941208 183.441422,191.968826 184.010132,192.010498 
	C184.023743,192.024567 184.051422,192.053879 184.051422,192.053864 
z"/>
<path fill="#2C42FE" opacity="1.000000" stroke="none" 
	d="
M187.076797,189.634125 
	C187.916321,190.175629 188.401398,190.706696 188.939163,191.605743 
	C187.618362,191.997391 186.244873,192.021072 184.461395,192.049316 
	C184.051422,192.053879 184.023743,192.024567 184.012466,191.735962 
	C184.006088,191.081284 184.010986,190.715195 184.015900,190.349106 
	C184.918060,190.107300 185.820206,189.865494 187.076797,189.634125 
z"/>
<path fill="#3146FE" opacity="1.000000" stroke="none" 
	d="
M183.723907,190.444824 
	C184.010986,190.715195 184.006088,191.081284 183.998871,191.721909 
	C183.441422,191.968826 182.886307,191.941208 181.916046,191.867584 
	C182.144562,191.394547 182.788223,190.967529 183.723907,190.444824 
z"/>
<path fill="#000777" opacity="1.000000" stroke="none" 
	d="
M1335.391357,235.682251 
	C1338.768677,237.078751 1341.800293,238.298279 1345.465942,239.772903 
	C1340.961792,250.018005 1334.870483,258.410095 1325.577271,264.161896 
	C1314.295410,271.144470 1301.977783,274.612823 1288.665405,273.987396 
	C1265.208130,272.885254 1246.862183,262.594788 1235.772949,241.811310 
	C1229.040771,229.193970 1227.533081,215.171310 1229.747192,200.721985 
	C1232.249268,184.393967 1239.196533,170.704391 1253.088867,161.773987 
	C1260.143799,157.238953 1268.609253,154.723404 1276.666016,151.963409 
	C1288.399048,147.944031 1300.186279,149.681366 1311.881470,152.781754 
	C1326.114014,156.554840 1336.312988,165.407516 1343.878662,177.707748 
	C1345.499268,180.342545 1344.918457,181.810669 1341.985474,182.950378 
	C1336.909546,184.922852 1332.028564,187.408249 1326.916870,189.269180 
	C1325.748291,189.694611 1323.328491,188.931915 1322.573608,187.910950 
	C1309.000000,169.550735 1286.300049,166.814453 1268.500000,180.804932 
	C1255.676025,190.884171 1251.392822,210.348282 1256.533081,224.973404 
	C1261.736694,239.778641 1272.008301,248.358490 1286.114624,251.495560 
	C1299.749146,254.527695 1311.892212,249.358902 1321.024780,238.379150 
	C1326.601685,231.674286 1326.535278,231.619095 1335.391357,235.682251 
z"/>
<path fill="#000777" opacity="1.000000" stroke="none" 
	d="
M865.576355,160.309448 
	C874.998596,167.021744 881.364136,175.628342 886.186462,185.720505 
	C891.633179,197.119675 891.663757,209.147476 890.826965,221.129456 
	C889.859497,234.983612 883.798401,246.839661 873.876648,256.663635 
	C864.352417,266.093933 852.829407,270.993683 839.660583,273.096985 
	C823.315979,275.707550 808.240234,272.349792 794.411987,264.016663 
	C783.366028,257.360168 775.193237,247.567047 771.136597,235.204575 
	C766.552551,221.234741 766.176208,206.781998 770.011902,192.569931 
	C773.700806,178.901840 781.675049,168.557846 793.634949,160.196396 
	C807.944702,150.192169 823.514343,148.667435 839.537354,150.357483 
	C848.502869,151.303131 857.746887,154.094040 865.576355,160.309448 
M865.975098,207.836838 
	C864.690979,196.857880 860.034058,187.738571 851.798584,180.195328 
	C843.154968,172.278259 832.676514,170.133774 822.159180,172.535614 
	C813.284058,174.562424 805.689819,179.966461 800.025940,188.160583 
	C787.012085,206.988174 792.185425,235.393768 812.070068,246.774307 
	C825.078430,254.219391 837.993835,253.811569 850.124878,244.854385 
	C862.200500,235.938126 866.524475,223.353043 865.975098,207.836838 
z"/>
<path fill="#000776" opacity="1.000000" stroke="none" 
	d="
M1104.022095,260.028076 
	C1083.840210,242.660492 1076.383057,213.477005 1086.482300,188.478027 
	C1093.818726,170.318268 1106.520142,158.479996 1124.889160,152.590057 
	C1138.590942,148.196640 1152.710938,148.531418 1165.946777,153.398300 
	C1182.911255,159.636200 1195.303223,171.365753 1201.937256,188.808762 
	C1207.229736,202.724365 1207.082642,217.024963 1203.656128,230.779541 
	C1199.579102,247.145416 1188.647949,258.992188 1173.582031,267.098267 
	C1163.223267,272.671600 1151.968262,273.793304 1140.858521,273.674133 
	C1127.437378,273.530090 1114.966309,268.882172 1104.022095,260.028076 
M1154.475708,250.047455 
	C1161.761597,248.299271 1167.215576,243.721848 1171.821167,238.191711 
	C1179.128418,229.417725 1180.279175,219.008087 1180.155029,207.907990 
	C1179.974854,191.788513 1167.210449,176.180328 1151.392578,172.176193 
	C1139.060913,169.054596 1121.272949,177.065796 1114.949707,188.410767 
	C1111.992920,193.715652 1110.202637,199.314941 1109.191650,205.709991 
	C1108.237793,211.743439 1108.871460,217.276031 1109.675781,222.688324 
	C1110.965576,231.369064 1115.952026,238.343842 1123.180420,243.794373 
	C1132.457764,250.789948 1142.193726,254.339783 1154.475708,250.047455 
z"/>
<path fill="#010977" opacity="1.000000" stroke="none" 
	d="
M969.284119,270.132996 
	C952.889893,270.097107 936.977173,269.992859 921.018311,269.061951 
	C920.973938,214.815079 920.975708,161.394852 920.977478,107.974632 
	C920.977478,107.974632 920.975586,107.915886 920.982178,107.886154 
	C939.635864,107.904228 958.319275,107.247368 976.919434,108.206535 
	C994.046631,109.089745 1010.351624,113.765213 1024.963623,123.493172 
	C1042.042725,134.863586 1052.091919,150.959641 1056.069336,170.596359 
	C1057.807739,179.178375 1057.654663,188.364548 1056.935425,197.159821 
	C1056.245728,205.592239 1054.426147,214.105286 1051.816406,222.166229 
	C1048.097168,233.654022 1041.296387,243.288834 1031.871094,251.221680 
	C1023.974854,257.867554 1015.219910,262.621033 1005.531982,265.638611 
	C1000.226440,267.291199 994.641846,268.266754 989.108887,268.912781 
	C982.703613,269.660736 976.216980,269.711304 969.284119,270.132996 
M948.109375,243.716537 
	C948.761169,244.124023 949.412964,244.531509 950.993225,244.897293 
	C960.994141,244.943832 970.995056,244.990387 980.397156,245.617523 
	C971.494019,245.851639 962.590820,246.085770 953.687683,246.319885 
	C953.699707,246.874420 953.711731,247.428940 953.723755,247.983475 
	C955.286743,247.983475 956.851562,248.033859 958.412354,247.975067 
	C966.701111,247.662979 974.990356,247.029129 983.276489,247.072403 
	C992.399475,247.120041 999.902954,243.116608 1007.073486,238.338669 
	C1018.134644,230.968307 1024.707031,220.166748 1028.813477,207.818237 
	C1032.329224,197.246323 1033.163696,186.157394 1030.627441,175.465210 
	C1028.611572,166.966675 1025.081177,158.833725 1019.500305,151.509888 
	C1010.200439,139.305496 997.902588,132.373672 983.339539,130.308868 
	C973.049438,128.849899 962.386414,130.049118 951.890198,129.996994 
	C949.144836,129.983368 947.865662,131.184525 947.503052,134.452057 
	C947.661194,138.068893 947.951965,141.685547 947.956909,145.302597 
	C948.001221,177.898453 947.995422,210.494370 948.109375,243.716537 
z"/>
<path fill="#393D97" opacity="1.000000" stroke="none" 
	d="
M973.526001,272.029419 
	C973.413696,272.381653 972.888306,273.047485 972.360657,273.049194 
	C955.628723,273.103882 938.896545,273.094116 922.158875,272.066925 
	C937.444031,272.066925 952.729187,272.066925 968.476807,272.065735 
	C970.330139,272.054169 971.721008,272.043823 973.526001,272.029419 
z"/>
<path fill="#000877" opacity="1.000000" stroke="none" 
	d="
M473.891663,269.649323 
	C465.222290,270.382965 456.603607,270.681763 447.508423,270.497925 
	C447.341064,261.220459 447.802094,252.427658 447.921448,243.630219 
	C448.076416,232.211044 448.078522,220.785965 447.866486,209.368622 
	C447.820038,206.867111 446.594025,204.387497 445.911224,201.897797 
	C445.440704,201.621735 444.970184,201.345673 443.939209,200.706024 
	C443.064209,200.238800 442.749756,200.044846 442.434998,200.044357 
	C419.785645,200.009323 397.136230,199.982880 374.486908,200.013062 
	C373.988770,200.013718 373.491486,200.675095 372.993805,201.028259 
	C372.689545,201.513931 372.385254,201.999603 371.916656,202.724884 
	C371.180420,204.678574 370.121674,206.389648 370.111115,208.107162 
	C369.992249,227.430862 369.926178,246.756638 370.121826,266.079071 
	C370.162476,270.092743 368.919708,271.254700 365.007202,271.130432 
	C359.039703,270.940857 353.052277,271.450653 347.076019,271.391571 
	C346.056396,271.381500 344.627075,270.215118 344.151459,269.218201 
	C343.629700,268.124603 343.973602,266.608795 343.973511,265.276947 
	C343.969360,215.133392 343.967651,164.989853 343.969879,114.846298 
	C343.970215,107.973457 343.980560,107.971672 350.928009,107.967781 
	C355.592529,107.965172 360.266388,108.151398 364.918701,107.913414 
	C368.902557,107.709618 370.120178,109.354622 370.092682,113.197495 
	C369.960388,131.688019 370.007629,150.180130 370.082642,168.671310 
	C370.089539,170.373550 370.742188,172.073151 371.465881,173.890442 
	C372.155823,174.470963 372.474823,174.934998 373.114441,175.974396 
	C375.655243,177.016449 377.880798,177.898697 380.094543,177.870071 
	C386.164398,177.791626 392.229828,177.077515 398.296082,177.089508 
	C404.752502,177.102280 411.209259,177.940216 417.663391,177.908554 
	C426.119507,177.867081 434.573212,177.326859 443.027954,177.000671 
	C443.859283,176.968613 444.904175,177.234497 445.473572,176.831024 
	C446.414276,176.164368 447.633179,175.110138 447.708618,174.139465 
	C448.013794,170.214462 447.972137,166.259064 447.976837,162.314758 
	C447.996063,146.160049 448.115234,130.003555 447.900848,113.851662 
	C447.841888,109.410828 449.547333,107.830490 453.726868,107.986244 
	C457.385742,108.122589 461.053711,108.014404 464.717682,108.012520 
	C472.993256,108.008255 472.992798,108.007812 472.992950,116.041000 
	C472.993896,160.175095 472.973480,204.309219 473.072968,248.443100 
	C473.077087,250.267136 474.205597,252.088669 474.810242,253.911377 
	C474.520935,259.012421 474.231628,264.113434 473.891663,269.649323 
z"/>
<path fill="#000877" opacity="1.000000" stroke="none" 
	d="
M651.885071,102.553711 
	C658.506714,102.057640 665.171936,102.255150 671.807190,101.896919 
	C676.025574,101.669174 677.103455,103.128807 677.087463,107.235756 
	C676.941406,144.829803 677.001404,182.424652 677.001038,220.019272 
	C677.000916,235.323273 677.039673,250.627533 676.942261,265.930908 
	C676.931763,267.581635 676.128906,269.227295 675.284424,270.986389 
	C668.875671,271.088348 662.862671,270.832825 656.880920,271.155487 
	C652.795837,271.375793 651.846436,269.853851 651.861511,266.004852 
	C651.991638,232.840073 652.012939,199.674255 651.890320,166.509415 
	C651.853149,156.465424 650.992432,146.423218 651.001709,136.380630 
	C651.012024,125.257484 651.586914,114.134850 651.885071,102.553711 
z"/>
<path fill="#010877" opacity="1.000000" stroke="none" 
	d="
M516.419128,255.801971 
	C516.241150,255.746307 516.084351,255.348312 516.015625,255.144897 
	C513.834656,250.761032 511.714172,246.584671 509.611542,242.399353 
	C503.466003,230.166473 502.246033,217.361771 503.659698,203.785065 
	C505.021027,190.711273 509.746033,179.369995 518.265198,169.790588 
	C525.340271,161.834976 534.071289,155.968475 544.550049,152.809708 
	C551.986938,150.567886 559.435852,149.934586 567.133728,149.929672 
	C588.691101,149.915924 608.159485,166.100693 613.890259,185.769485 
	C616.133057,193.467224 617.357056,201.471283 618.827576,209.376266 
	C619.110046,210.894699 618.377441,212.601974 618.083862,214.622452 
	C618.039368,215.438049 618.024048,215.853302 618.005310,216.578552 
	C589.641785,216.934006 561.281677,216.979492 532.451416,217.052460 
	C531.613098,217.773590 531.245056,218.467255 530.804077,219.465057 
	C530.188110,222.008438 528.811584,224.420563 529.234619,226.459274 
	C532.411865,241.771286 543.005310,250.664810 559.088867,253.152649 
	C569.651672,254.786530 579.098694,252.807373 587.834167,246.983490 
	C590.015442,245.529266 591.700867,243.347305 593.818054,241.774261 
	C594.862244,240.998459 596.747864,240.102798 597.608093,240.537354 
	C602.742310,243.131180 607.688477,246.097137 613.644165,249.475021 
	C610.127014,253.442856 607.080322,257.764221 603.186401,261.095093 
	C594.140930,268.832520 583.354065,273.731415 571.540283,273.769531 
	C552.870789,273.829712 534.319702,272.109711 520.400818,257.006592 
	C519.981750,256.551880 519.262817,256.373444 518.253662,255.850449 
	C517.537048,255.731445 517.250549,255.828217 516.963989,255.924988 
	C516.963989,255.925003 516.597107,255.857635 516.419128,255.801971 
M592.660217,199.945160 
	C593.301086,199.575851 594.462708,199.259216 594.506104,198.829498 
	C595.426392,189.728424 586.225586,176.006241 577.918701,171.922379 
	C571.707092,168.868591 565.477722,169.008698 559.053955,169.008804 
	C546.937683,169.009018 534.375183,178.793747 530.870422,190.441376 
	C529.664612,194.448532 527.619995,198.147659 531.581177,202.581665 
	C532.388367,202.722427 533.195312,202.984894 534.002686,202.986038 
	C552.112061,203.011917 570.221558,203.028946 588.330750,202.967239 
	C589.550049,202.963089 590.767273,202.323669 591.981262,201.289536 
	C591.954834,200.830383 591.928406,200.371246 592.001953,199.991302 
	C592.001953,199.991302 591.910767,199.903351 592.660217,199.945160 
z"/>
<path fill="#12135F" opacity="1.000000" stroke="none" 
	d="
M517.221191,255.951843 
	C517.250549,255.828217 517.537048,255.731445 517.909546,255.802795 
	C517.823120,255.973495 517.650757,255.976089 517.221191,255.951843 
z"/>
<path fill="#566CFF" opacity="1.000000" stroke="none" 
	d="
M127.863480,301.861633 
	C126.711090,302.417450 125.263000,302.846710 123.814644,302.847595 
	C92.188187,302.867249 60.561695,302.839386 28.469378,302.762512 
	C28.005606,302.327148 28.007671,301.949890 27.993851,301.287537 
	C59.381084,301.001770 90.784218,300.992310 122.187309,301.023285 
	C123.980927,301.025055 125.774208,301.357208 127.863480,301.861633 
z"/>
<path fill="#000155" opacity="1.000000" stroke="none" 
	d="
M474.854401,253.453018 
	C474.205597,252.088669 473.077087,250.267136 473.072968,248.443100 
	C472.973480,204.309219 472.993896,160.175095 472.992950,116.041000 
	C472.992798,108.007812 472.993256,108.008255 464.717682,108.012520 
	C461.053711,108.014404 457.385742,108.122589 453.726868,107.986244 
	C449.547333,107.830490 447.841888,109.410828 447.900848,113.851662 
	C448.115234,130.003555 447.996063,146.160049 447.976837,162.314758 
	C447.972137,166.259064 448.013794,170.214462 447.708618,174.139465 
	C447.633179,175.110138 446.414276,176.164368 445.473572,176.831024 
	C444.904175,177.234497 443.859283,176.968613 443.027954,177.000671 
	C434.573212,177.326859 426.119507,177.867081 417.663391,177.908554 
	C411.209259,177.940216 404.752502,177.102280 398.296082,177.089508 
	C392.229828,177.077515 386.164398,177.791626 380.094543,177.870071 
	C377.880798,177.898697 375.655243,177.016449 373.228149,176.230438 
	C395.506775,175.909164 417.993408,175.789932 440.476959,176.002762 
	C445.060028,176.046143 446.089172,174.394501 446.053955,170.166458 
	C445.880554,149.362122 445.975189,128.555542 445.975189,106.397507 
	C455.806976,106.992180 465.320892,107.567635 474.661499,108.722931 
	C474.609802,109.875534 474.731415,110.448303 474.853027,111.021080 
	C474.866760,111.459610 474.880463,111.898148 474.637085,112.933044 
	C474.536743,115.355606 474.693481,117.181801 474.850220,119.007996 
	C474.864136,129.694351 474.878082,140.380722 474.612427,151.854675 
	C474.498047,157.430084 474.663269,162.217896 474.828491,167.005707 
	C474.853241,177.353012 474.877991,187.700317 474.684509,198.678604 
	C474.594360,199.880630 474.722443,200.451691 474.850525,201.022751 
	C474.866516,218.346725 474.882507,235.670685 474.854401,253.453018 
z"/>
<path fill="#000877" opacity="1.000000" stroke="none" 
	d="
M474.885376,166.542542 
	C474.663269,162.217896 474.498047,157.430084 474.583862,152.322479 
	C474.870667,156.694916 474.906464,161.387146 474.885376,166.542542 
z"/>
<path fill="#000877" opacity="1.000000" stroke="none" 
	d="
M474.902710,118.580818 
	C474.693481,117.181801 474.536743,115.355606 474.617340,113.261688 
	C474.888184,114.713852 474.921692,116.433746 474.902710,118.580818 
z"/>
<path fill="#000877" opacity="1.000000" stroke="none" 
	d="
M474.899719,200.683533 
	C474.722443,200.451691 474.594360,199.880630 474.657440,199.145081 
	C474.882050,199.435165 474.915497,199.889755 474.899719,200.683533 
z"/>
<path fill="#000877" opacity="1.000000" stroke="none" 
	d="
M474.902405,110.682671 
	C474.731415,110.448303 474.609802,109.875534 474.684509,109.141708 
	C474.904510,109.435196 474.928162,109.889725 474.902405,110.682671 
z"/>
<path fill="#485DFF" opacity="1.000000" stroke="none" 
	d="
M239.509186,51.454216 
	C236.014252,48.847488 232.779083,46.480606 229.543900,44.113724 
	C229.730087,43.627289 229.916275,43.140854 230.102463,42.654415 
	C231.273254,42.428371 232.443100,42.011894 233.614990,42.006077 
	C244.011536,41.954445 254.408524,41.993145 264.805237,41.961559 
	C267.118164,41.954529 269.010925,41.949940 269.068756,45.216934 
	C269.238892,54.821579 269.732483,64.420425 269.912231,74.025040 
	C269.942200,75.626831 269.035034,77.246162 268.560913,78.857391 
	C267.081055,78.003082 265.337799,77.414673 264.163635,76.251709 
	C255.966125,68.132416 247.886398,59.894196 239.509186,51.454216 
z"/>
<path fill="#000043" opacity="1.000000" stroke="none" 
	d="
M920.641968,108.238510 
	C920.975708,161.394852 920.973938,214.815079 920.949463,268.728394 
	C920.575012,267.829468 919.917297,266.437744 919.915894,265.045349 
	C919.863953,213.837677 919.870667,162.629959 919.891724,111.422256 
	C919.892151,110.448906 920.162170,109.475677 920.641968,108.238510 
z"/>
<path fill="#000876" opacity="1.000000" stroke="none" 
	d="
M739.003052,269.516174 
	C736.286011,270.345459 733.590515,270.707764 730.474609,271.105530 
	C724.645203,271.708069 719.236145,272.275177 713.446045,272.850677 
	C713.058350,216.216949 713.051636,159.574799 713.112854,102.467247 
	C721.506653,102.008774 729.832458,102.015694 738.639160,102.064392 
	C739.094727,106.020157 739.047974,109.934143 739.047302,113.848129 
	C739.041443,147.321228 739.046082,180.794327 739.043091,214.267426 
	C739.041443,232.528030 739.030945,250.788620 739.003052,269.516174 
z"/>
<path fill="#000043" opacity="1.000000" stroke="none" 
	d="
M445.951477,202.376282 
	C446.594025,204.387497 447.820038,206.867111 447.866486,209.368622 
	C448.078522,220.785965 448.076416,232.211044 447.921448,243.630219 
	C447.802094,252.427658 447.341064,261.220459 447.043640,270.477173 
	C447.041107,271.390289 447.026825,271.841553 447.001770,272.630493 
	C446.655212,271.464447 446.031158,269.961487 446.027008,268.456848 
	C445.966492,246.589630 445.989014,224.722153 445.951477,202.376282 
z"/>
<path fill="#000043" opacity="1.000000" stroke="none" 
	d="
M373.462891,201.004242 
	C373.491486,200.675095 373.988770,200.013718 374.486908,200.013062 
	C397.136230,199.982880 419.785645,200.009323 442.434998,200.044357 
	C442.749756,200.044846 443.064209,200.238800 443.669250,200.635345 
	C420.617157,200.945557 397.274567,200.962875 373.462891,201.004242 
z"/>
<path fill="#566CFF" opacity="1.000000" stroke="none" 
	d="
M255.795624,302.260773 
	C236.619156,302.697113 217.332962,302.799316 198.046646,302.857025 
	C186.071716,302.892853 174.096603,302.861176 161.676178,302.819519 
	C161.162918,302.389008 161.095032,301.998810 161.030914,301.310547 
	C191.025223,301.009460 221.015747,300.992889 251.006195,301.041931 
	C252.566559,301.044495 254.125992,301.606354 255.795624,302.260773 
z"/>
<path fill="#151864" opacity="1.000000" stroke="none" 
	d="
M865.979248,208.298096 
	C866.524475,223.353043 862.200500,235.938126 850.124878,244.854385 
	C837.993835,253.811569 825.078430,254.219391 812.070068,246.774307 
	C792.185425,235.393768 787.012085,206.988174 800.025940,188.160583 
	C805.689819,179.966461 813.284058,174.562424 822.159180,172.535614 
	C832.676514,170.133774 843.154968,172.278259 851.798584,180.195328 
	C860.034058,187.738571 864.690979,196.857880 865.979248,208.298096 
M796.626953,203.492599 
	C796.658936,209.370331 795.963928,215.362762 796.869507,221.102661 
	C798.959412,234.349274 807.238159,243.274857 819.566467,247.476959 
	C830.929932,251.350189 841.899719,248.879150 851.093262,240.879654 
	C863.020630,230.501358 866.143433,211.670563 859.877319,195.669739 
	C853.895935,180.395874 838.864197,173.425461 827.216003,174.432953 
	C811.766296,175.769226 800.127563,186.904877 796.626953,203.492599 
z"/>
<path fill="#161965" opacity="1.000000" stroke="none" 
	d="
M1154.080078,250.129761 
	C1142.193726,254.339783 1132.457764,250.789948 1123.180420,243.794373 
	C1115.952026,238.343842 1110.965576,231.369064 1109.675781,222.688324 
	C1108.871460,217.276031 1108.237793,211.743439 1109.191650,205.709991 
	C1110.202637,199.314941 1111.992920,193.715652 1114.949707,188.410767 
	C1121.272949,177.065796 1139.060913,169.054596 1151.392578,172.176193 
	C1167.210449,176.180328 1179.974854,191.788513 1180.155029,207.907990 
	C1180.279175,219.008087 1179.128418,229.417725 1171.821167,238.191711 
	C1167.215576,243.721848 1161.761597,248.299271 1154.080078,250.129761 
M1164.278320,241.887878 
	C1178.922852,231.063263 1181.487549,208.003708 1172.907715,191.725540 
	C1164.433716,175.647980 1144.417603,169.923233 1128.588867,178.909088 
	C1116.046143,186.029449 1108.315552,203.850021 1111.759033,220.806839 
	C1116.312500,243.228714 1141.910400,258.107391 1164.278320,241.887878 
z"/>
<path fill="#FCFCFD" opacity="1.000000" stroke="none" 
	d="
M980.995972,245.036942 
	C970.995056,244.990387 960.994141,244.943832 950.428589,244.572723 
	C949.679565,243.806122 949.495117,243.364075 949.443237,242.476929 
	C949.589172,218.471970 949.631042,194.912064 949.604187,171.352234 
	C949.590027,158.917023 949.456177,146.481964 949.652710,133.634186 
	C961.302185,133.332077 972.690247,133.118423 984.043884,133.646301 
	C994.912781,134.151672 1004.001831,139.159317 1011.692200,146.685593 
	C1024.195068,158.921432 1028.850830,173.993698 1028.557007,191.265030 
	C1028.128906,216.432602 1011.092529,242.336578 980.995972,245.036942 
z"/>
<path fill="#141665" opacity="1.000000" stroke="none" 
	d="
M980.696533,245.327240 
	C1011.092529,242.336578 1028.128906,216.432602 1028.557007,191.265030 
	C1028.850830,173.993698 1024.195068,158.921432 1011.692200,146.685593 
	C1004.001831,139.159317 994.912781,134.151672 984.043884,133.646301 
	C972.690247,133.118423 961.302185,133.332077 949.423828,133.645050 
	C948.619324,134.005417 948.318054,133.954651 948.014648,133.916260 
	C947.865662,131.184525 949.144836,129.983368 951.890198,129.996994 
	C962.386414,130.049118 973.049438,128.849899 983.339539,130.308868 
	C997.902588,132.373672 1010.200439,139.305496 1019.500305,151.509888 
	C1025.081177,158.833725 1028.611572,166.966675 1030.627441,175.465210 
	C1033.163696,186.157394 1032.329224,197.246323 1028.813477,207.818237 
	C1024.707031,220.166748 1018.134644,230.968307 1007.073486,238.338669 
	C999.902954,243.116608 992.399475,247.120041 983.276489,247.072403 
	C974.990356,247.029129 966.701111,247.662979 958.412354,247.975067 
	C956.851562,248.033859 955.286743,247.983475 953.723755,247.983475 
	C953.711731,247.428940 953.699707,246.874420 953.687683,246.319885 
	C962.590820,246.085770 971.494019,245.851639 980.696533,245.327240 
z"/>
<path fill="#000043" opacity="1.000000" stroke="none" 
	d="
M947.758850,134.184158 
	C948.318054,133.954651 948.619324,134.005417 949.147400,134.057678 
	C949.456177,146.481964 949.590027,158.917023 949.604187,171.352234 
	C949.631042,194.912064 949.589172,218.471970 949.222717,242.476486 
	C948.583313,242.988220 948.294861,243.044601 948.004272,243.090271 
	C947.995422,210.494370 948.001221,177.898453 947.956909,145.302597 
	C947.951965,141.685547 947.661194,138.068893 947.758850,134.184158 
z"/>
<path fill="#141665" opacity="1.000000" stroke="none" 
	d="
M948.056824,243.403412 
	C948.294861,243.044601 948.583313,242.988220 949.090149,242.921570 
	C949.495117,243.364075 949.679565,243.806122 949.964355,244.593567 
	C949.412964,244.531509 948.761169,244.124023 948.056824,243.403412 
z"/>
<path fill="#151864" opacity="1.000000" stroke="none" 
	d="
M531.017212,201.961670 
	C527.619995,198.147659 529.664612,194.448532 530.870422,190.441376 
	C534.375183,178.793747 546.937683,169.009018 559.053955,169.008804 
	C565.477722,169.008698 571.707092,168.868591 577.918701,171.922379 
	C586.225586,176.006241 595.426392,189.728424 594.506104,198.829498 
	C594.462708,199.259216 593.301086,199.575851 592.316162,199.514313 
	C591.080200,181.874207 578.411377,171.774246 563.445435,170.990143 
	C546.728882,170.114334 532.900208,182.779617 531.658508,199.912094 
	C551.767090,199.912094 571.834534,199.912094 591.901978,199.912094 
	C591.928406,200.371246 591.954834,200.830383 591.516235,201.640015 
	C571.039917,201.980896 551.028564,201.971283 531.017212,201.961670 
z"/>
<path fill="#000155" opacity="1.000000" stroke="none" 
	d="
M531.299194,202.271667 
	C551.028564,201.971283 571.039917,201.980896 591.518372,201.985107 
	C590.767273,202.323669 589.550049,202.963089 588.330750,202.967239 
	C570.221558,203.028946 552.112061,203.011917 534.002686,202.986038 
	C533.195312,202.984894 532.388367,202.722427 531.299194,202.271667 
z"/>
<path fill="#FAFAFC" opacity="1.000000" stroke="none" 
	d="
M796.661011,203.061005 
	C800.127563,186.904877 811.766296,175.769226 827.216003,174.432953 
	C838.864197,173.425461 853.895935,180.395874 859.877319,195.669739 
	C866.143433,211.670563 863.020630,230.501358 851.093262,240.879654 
	C841.899719,248.879150 830.929932,251.350189 819.566467,247.476959 
	C807.238159,243.274857 798.959412,234.349274 796.869507,221.102661 
	C795.963928,215.362762 796.658936,209.370331 796.661011,203.061005 
z"/>
<path fill="#FAFAFC" opacity="1.000000" stroke="none" 
	d="
M1164.024658,242.152222 
	C1141.910400,258.107391 1116.312500,243.228714 1111.759033,220.806839 
	C1108.315552,203.850021 1116.046143,186.029449 1128.588867,178.909088 
	C1144.417603,169.923233 1164.433716,175.647980 1172.907715,191.725540 
	C1181.487549,208.003708 1178.922852,231.063263 1164.024658,242.152222 
z"/>
<path fill="#F7F7FB" opacity="1.000000" stroke="none" 
	d="
M591.951965,199.951691 
	C571.834534,199.912094 551.767090,199.912094 531.658508,199.912094 
	C532.900208,182.779617 546.728882,170.114334 563.445435,170.990143 
	C578.411377,171.774246 591.080200,181.874207 591.941406,199.493408 
	C591.910767,199.903351 592.001953,199.991302 591.951965,199.951691 
z"/>
</svg>